<svg width="1920" height="213" viewBox="0 0 1920 213" fill="none" xmlns="http://www.w3.org/2000/svg">
<path d="M1920 8H868.713L783.992 46.4067H9.15527e-05V213H1920V8Z" fill="#CC0033"/>
<mask id="mask0_299_648" style="mask-type:luminance" maskUnits="userSpaceOnUse" x="960" y="0" width="960" height="206">
<path d="M1920 0H960V206H1920V0Z" fill="white"/>
</mask>
<g mask="url(#mask0_299_648)">
<g opacity="0.84">
<g opacity="0.12">
<path d="M977.624 192.277V254.389H979.178V192.277H977.624Z" fill="white"/>
<path d="M1108.65 242.923L1110 243.688L1138.84 192.684L1137.49 191.92L1108.65 242.923Z" fill="white"/>
<path d="M1149.32 201.863L1121.71 250.803L1120.36 250.038L1147.96 201.098L1149.32 201.863Z" fill="white"/>
<path d="M1226.96 234.068L1228.43 234.564L1242.63 192.537L1241.16 192.041L1226.96 234.068Z" fill="white"/>
<path d="M1256.87 192.544L1241.39 234.582L1239.93 234.047L1255.41 192.011L1256.87 192.544Z" fill="white"/>
<path d="M993.101 192.277V254.389H994.655V192.277H993.101Z" fill="white"/>
<path d="M1053.67 224.736L1053.43 225.003L1015.58 267.454L1014.42 266.422L1052.03 224.239L1047.48 192.388L1049.02 192.169L1053.67 224.736Z" fill="white"/>
<path d="M1069.72 218.666L1068.2 219.006L1062.13 192.447L1063.65 192.106L1069.72 218.666Z" fill="white"/>
<path d="M1223.71 246.201L1222.9 247.524L1148.23 202.142L1149.04 200.819L1223.71 246.201Z" fill="white"/>
<path d="M1158.29 192.916L1227.28 235L1228.08 233.677L1159.1 191.593L1158.29 192.916Z" fill="white"/>
<path d="M986.137 117.253V118.807H985.084L984.899 118.692L966.284 107.401L967.091 106.077L985.521 117.253H986.137Z" fill="white"/>
<path d="M978.801 129.497L977.999 130.832L956.874 118.072L957.674 116.737L978.801 129.497Z" fill="white"/>
<path d="M978.667 16V24.339H980.222V16H978.667Z" fill="white"/>
<path d="M978.667 38.77V72.23H980.221V38.77H978.667Z" fill="white"/>
<path d="M930 46.4771L943.247 39.5471H979.447V37.9911H943.057L930 44.7831V46.4771Z" fill="white"/>
<path d="M939.918 23.562V25.116L979.445 25.116V23.562L939.918 23.562Z" fill="white"/>
<path d="M977.623 130.166V192.278H979.177V130.166H977.623Z" fill="white"/>
<path d="M986.717 85.505L967.268 107.255L966.108 106.224L985.558 84.473L986.717 85.505Z" fill="white"/>
<path d="M980.024 72.747L955.554 100.147L954.395 99.115L978.865 71.715L980.024 72.747Z" fill="white"/>
<path d="M1130.01 32.11L1156.43 16.002H1153.45L1129.21 30.787L1130.01 32.11Z" fill="white"/>
<path d="M1116.63 40.268L1080.44 62.225L1079.64 60.902L1115.82 38.944L1116.63 40.268Z" fill="white"/>
<path d="M1068.73 69.339L1017.7 100.292L1016.9 98.969L1067.93 68.016L1068.73 69.339Z" fill="white"/>
<path d="M1005.99 107.401L987.403 118.807H986.137V117.253H986.966L1005.18 106.077L1005.99 107.401Z" fill="white"/>
<path d="M1136.92 44.238L1183.47 16.002H1180.48L1136.11 42.915L1136.92 44.238Z" fill="white"/>
<path d="M1121.44 53.653L1087.35 74.359L1086.54 73.036L1120.63 52.33L1121.44 53.653Z" fill="white"/>
<path d="M1015.4 118.073L994.277 130.833L993.477 129.498L1014.6 116.738L1015.4 118.073Z" fill="white"/>
<path d="M1167.24 91.508L1114.95 123.293L1114.15 121.97L1166.43 90.185L1167.24 91.508Z" fill="white"/>
<path d="M1064.37 152.298L1065.18 153.621L1103.24 130.408L1102.43 129.084L1064.37 152.298Z" fill="white"/>
<path d="M1120.63 133.267L1121.44 134.591L1179.79 99.0363L1178.98 97.7127L1120.63 133.267Z" fill="white"/>
<path d="M1109.73 141.699L1069.36 166.381L1068.55 165.058L1108.91 140.376L1109.73 141.699Z" fill="white"/>
<path d="M1069.01 68.296L1067.65 69.061L1060.12 55.676L1061.48 54.911L1069.01 68.296Z" fill="white"/>
<path d="M1074.55 81.1939L1102.17 130.123L1103.52 129.359L1075.9 80.4295L1074.55 81.1939Z" fill="white"/>
<path d="M1108.62 141.434L1137.53 192.645L1138.88 191.881L1109.97 140.67L1108.62 141.434Z" fill="white"/>
<path d="M1080.72 61.1811L1079.36 61.9451L1075.81 55.6751L1077.16 54.9101L1080.72 61.1811Z" fill="white"/>
<path d="M1086.25 74.1211L1113.9 123.002L1115.25 122.237L1087.61 73.3561L1086.25 74.1211Z" fill="white"/>
<path d="M1120.35 134.316L1147.97 183.245L1149.33 182.481L1121.7 133.551L1120.35 134.316Z" fill="white"/>
<path d="M1167.25 90.186L1166.43 91.509L1155.34 84.609L1120.52 53.575L1121.55 52.409L1156.27 83.362L1167.25 90.186Z" fill="white"/>
<path d="M1224.04 137.237L1222.56 137.723L1217.63 122.729L1178.98 99.036L1179.79 97.713L1218.93 121.697L1224.04 137.237Z" fill="white"/>
<path d="M1226.95 150.49L1241.19 192.524L1242.66 192.027L1228.42 149.992L1226.95 150.49Z" fill="white"/>
<path d="M1256.87 192.01L1255.41 192.544L1239.93 150.508L1241.39 149.973L1256.87 192.01Z" fill="white"/>
<path d="M1235.12 137.747L1236.58 137.213L1226.03 108.247L1272.15 15.9991H1270.42L1224.34 108.153L1235.12 137.747Z" fill="white"/>
<path d="M1253.52 17.91L1251.01 24.81L1247.85 31.568L1243.83 38.13L1239.4 44.043L1234.12 49.755L1228.41 54.623L1222.29 59.06L1215.73 62.66L1208.78 65.83L1201.58 68.161L1194.17 69.649L1186.58 70.492L1179.17 70.498L1171.56 69.655L1164.17 68.186L1156.65 65.66L1135.95 44.116L1137.07 43.036L1157.64 64.44L1164.56 66.68L1171.8 68.119L1179.26 68.951L1186.49 68.944L1193.94 68.113L1201.19 66.656L1208.21 64.38L1215.03 61.272L1221.47 57.751L1227.45 53.404L1233.05 48.638L1238.21 43.047L1242.55 37.256L1246.49 30.834L1249.59 24.217L1252.07 17.376L1253.52 17.91Z" fill="white"/>
<path d="M1252.24 17.583L1253.77 17.292L1253.52 16.002H1251.94L1252.24 17.583Z" fill="white"/>
<path d="M992.052 16V24.339H993.606V16H992.052Z" fill="white"/>
<path d="M992.052 38.77V72.23H993.606V38.77H992.052Z" fill="white"/>
<path d="M1032.76 25.001L1047.45 16.001H1044.48L1031.95 23.678L1032.76 25.001Z" fill="white"/>
<path d="M1075.71 55.3051L1077.26 55.2811L1076.69 16.0051H1075.14L1075.71 55.3051Z" fill="white"/>
<path d="M1061.16 54.607L1060.44 55.979L1029.03 39.546H992.829V37.992L1029.58 38.079L1061.16 54.607Z" fill="white"/>
<path d="M992.83 23.562V25.116L1032.36 25.116V23.562L992.83 23.562Z" fill="white"/>
<path d="M993.101 130.165V192.277H994.655V130.165H993.101Z" fill="white"/>
<path d="M1006.17 106.223L1005.01 107.255L985.557 85.504L986.717 84.473L1006.17 106.223Z" fill="white"/>
<path d="M1053.67 159.819L1049.02 192.387L1047.48 192.168L1052.03 160.317L1014.42 117.921L1015.58 116.887L1053.67 159.819Z" fill="white"/>
<path d="M1075.64 81.468L1027.12 110.958L1026.31 109.635L1074.83 80.145L1075.64 81.468Z" fill="white"/>
<path d="M1017.88 99.115L1016.72 100.147L992.25 72.747L993.409 71.715L1017.88 99.115Z" fill="white"/>
<path d="M1026.15 110.784L1064.17 153.493L1065.33 152.461L1027.31 109.752L1026.15 110.784Z" fill="white"/>
<path d="M1069.72 165.889L1063.65 192.447L1062.13 192.107L1068.2 165.547L1069.72 165.889Z" fill="white"/>
<path d="M1115.47 39.813L1116.97 39.401L1110.47 16.001H1108.86L1115.47 39.813Z" fill="white"/>
<path d="M1128.86 31.655L1130.36 31.241L1126.11 16.003H1124.5L1128.86 31.655Z" fill="white"/>
<path d="M1235.84 136.702L1235.86 138.256L1273.3 137.844L1273.28 136.29L1235.84 136.702Z" fill="white"/>
<path d="M1223.71 138.142L1149.04 183.53L1148.23 182.207L1222.9 136.818L1223.71 138.142Z" fill="white"/>
<path d="M1240.66 149.463V151.017H1273.29V149.463H1240.66Z" fill="white"/>
<path d="M1158.28 191.615L1159.08 192.939L1228.09 150.918L1227.29 149.594L1158.28 191.615Z" fill="white"/>
<path d="M1408.22 192.686L1437.06 243.69L1438.42 242.925L1409.57 191.921L1408.22 192.686Z" fill="white"/>
<path d="M1397.72 201.856L1425.37 250.797L1426.72 250.032L1399.08 201.09L1397.72 201.856Z" fill="white"/>
<path d="M1304.41 192.528L1318.65 234.561L1320.12 234.063L1305.88 192.031L1304.41 192.528Z" fill="white"/>
<path d="M1307.13 234.048L1305.68 234.583L1290.2 192.545L1291.66 192.01L1307.13 234.048Z" fill="white"/>
<path d="M1552.42 192.277V254.389H1553.97V192.277H1552.42Z" fill="white"/>
<path d="M1532.65 266.421L1531.49 267.453L1493.4 224.735L1498.05 192.167L1499.58 192.386L1495.03 224.238L1532.65 266.421Z" fill="white"/>
<path d="M1484.93 192.447L1478.87 219.005L1477.35 218.665L1483.42 192.105L1484.93 192.447Z" fill="white"/>
<path d="M1398.83 202.142L1324.17 247.524L1323.36 246.201L1398.02 200.818L1398.83 202.142Z" fill="white"/>
<path d="M1318.97 233.653L1319.78 234.977L1388.79 192.955L1387.98 191.631L1318.97 233.653Z" fill="white"/>
<path d="M1683.44 242.922L1684.79 243.688L1713.65 192.66L1712.3 191.894L1683.44 242.922Z" fill="white"/>
<path d="M1724.11 201.863L1696.5 250.803L1695.15 250.038L1722.75 201.098L1724.11 201.863Z" fill="white"/>
<path d="M1801.75 234.067L1803.22 234.564L1817.44 192.526L1815.98 192.029L1801.75 234.067Z" fill="white"/>
<path d="M1831.66 192.544L1816.18 234.582L1814.72 234.047L1830.2 192.01L1831.66 192.544Z" fill="white"/>
<path d="M1567.89 192.277V254.389H1569.45V192.277H1567.89Z" fill="white"/>
<path d="M1628.47 224.736L1628.23 225.003L1590.37 267.453L1589.21 266.422L1626.83 224.239L1622.28 192.387L1623.81 192.169L1628.47 224.736Z" fill="white"/>
<path d="M1644.51 218.665L1642.99 219.005L1636.93 192.447L1638.44 192.107L1644.51 218.665Z" fill="white"/>
<path d="M1798.5 246.201L1797.69 247.524L1723.03 202.142L1723.83 200.819L1798.5 246.201Z" fill="white"/>
<path d="M1733.08 192.915L1802.07 235L1802.88 233.677L1733.89 191.592L1733.08 192.915Z" fill="white"/>
<path d="M1417.06 32.11L1417.86 30.787L1393.62 16.002H1390.64L1417.06 32.11Z" fill="white"/>
<path d="M1467.43 60.902L1466.62 62.225L1430.44 40.268L1431.25 38.945L1467.43 60.902Z" fill="white"/>
<path d="M1530.17 98.969L1529.36 100.292L1478.34 69.339L1479.14 68.016L1530.17 98.969Z" fill="white"/>
<path d="M1560.93 117.253V118.807H1559.88L1559.69 118.692L1541.08 107.401L1541.88 106.077L1560.31 117.253H1560.93Z" fill="white"/>
<path d="M1410.15 44.238L1410.96 42.915L1366.59 16.002H1363.6L1410.15 44.238Z" fill="white"/>
<path d="M1460.53 73.037L1459.72 74.36L1425.63 53.654L1426.44 52.331L1460.53 73.037Z" fill="white"/>
<path d="M1553.59 129.497L1552.79 130.832L1531.67 118.072L1532.47 116.737L1553.59 129.497Z" fill="white"/>
<path d="M1432.92 121.97L1432.12 123.293L1379.83 91.508L1380.64 90.185L1432.92 121.97Z" fill="white"/>
<path d="M1443.83 130.405L1481.89 153.623L1482.7 152.3L1444.63 129.082L1443.83 130.405Z" fill="white"/>
<path d="M1367.29 99.0202L1425.62 134.605L1426.43 133.282L1368.1 97.697L1367.29 99.0202Z" fill="white"/>
<path d="M1478.52 165.058L1477.7 166.381L1437.34 141.699L1438.15 140.376L1478.52 165.058Z" fill="white"/>
<path d="M1486.94 55.6751L1479.42 69.0601L1478.06 68.2951L1485.59 54.9091L1486.94 55.6751Z" fill="white"/>
<path d="M1443.55 129.364L1444.91 130.128L1472.51 81.1885L1471.16 80.4245L1443.55 129.364Z" fill="white"/>
<path d="M1408.21 191.896L1409.56 192.659L1438.42 141.418L1437.07 140.655L1408.21 191.896Z" fill="white"/>
<path d="M1471.26 55.675L1467.7 61.946L1466.35 61.181L1469.9 54.91L1471.26 55.675Z" fill="white"/>
<path d="M1431.84 122.249L1433.2 123.013L1460.8 74.0796L1459.45 73.3156L1431.84 122.249Z" fill="white"/>
<path d="M1397.75 182.486L1399.1 183.25L1426.71 134.31L1425.36 133.546L1397.75 182.486Z" fill="white"/>
<path d="M1426.55 53.574L1391.83 84.527L1380.64 91.509L1379.82 90.186L1390.91 83.286L1425.52 52.409L1426.55 53.574Z" fill="white"/>
<path d="M1368.09 99.036L1329.43 122.729L1324.5 137.722L1323.03 137.237L1328.13 121.697L1328.38 121.551L1367.28 97.712L1368.09 99.036Z" fill="white"/>
<path d="M1304.42 192.029L1305.89 192.526L1320.11 150.488L1318.64 149.991L1304.42 192.029Z" fill="white"/>
<path d="M1307.13 150.507L1291.66 192.545L1290.2 192.01L1305.68 149.974L1307.13 150.507Z" fill="white"/>
<path d="M1321.04 108.247L1310.48 137.213L1311.95 137.747L1322.62 108.469L1322.73 108.153L1276.85 16.0001H1275.12L1321.04 108.247Z" fill="white"/>
<path d="M1411.12 44.116L1390.09 65.86L1382.98 68.16L1375.58 69.649L1368.19 70.492L1360.58 70.498L1352.96 69.655L1345.57 68.186L1338.37 65.861L1331.39 62.692L1324.86 59.111L1318.71 54.667L1313.01 49.817L1307.91 44.092L1303.29 38.204L1299.26 31.648L1296.08 24.874L1293.55 17.91L1295.01 17.375L1297.52 24.275L1300.63 30.914L1304.56 37.314L1309.11 43.098L1314.1 48.713L1319.67 53.447L1325.69 57.798L1332.09 61.298L1338.94 64.406L1345.96 66.676L1353.2 68.119L1360.66 68.951L1368.1 68.944L1375.34 68.112L1382.59 66.656L1389.43 64.44L1410 43.04L1411.12 44.116Z" fill="white"/>
<path d="M1294.83 17.583L1295.13 16.002H1293.55L1293.3 17.292L1294.83 17.583Z" fill="white"/>
<path d="M1553.46 16V24.339H1555.01V16H1553.46Z" fill="white"/>
<path d="M1553.46 38.769V72.229H1555.01V38.769H1553.46Z" fill="white"/>
<path d="M1514.3 25.001L1515.11 23.678L1502.59 16.001H1499.62L1514.3 25.001Z" fill="white"/>
<path d="M1471.36 55.3051L1471.93 16.0051H1470.38L1469.8 55.2811L1471.36 55.3051Z" fill="white"/>
<path d="M1554.24 37.992V39.546H1518.04L1486.63 55.979L1485.91 54.607L1517.85 37.992H1554.24Z" fill="white"/>
<path d="M1514.71 23.562V25.116L1554.24 25.116V23.562L1514.71 23.562Z" fill="white"/>
<path d="M1552.42 130.165V192.277H1553.97V130.165H1552.42Z" fill="white"/>
<path d="M1561.51 85.505L1542.06 107.255L1540.9 106.224L1560.35 84.473L1561.51 85.505Z" fill="white"/>
<path d="M1532.65 117.92L1495.03 160.316L1499.58 192.168L1498.05 192.386L1493.4 159.818L1531.49 116.886L1532.65 117.92Z" fill="white"/>
<path d="M1520.76 109.635L1519.96 110.958L1471.43 81.468L1472.24 80.145L1520.76 109.635Z" fill="white"/>
<path d="M1554.82 72.747L1530.35 100.147L1529.19 99.115L1553.66 71.715L1554.82 72.747Z" fill="white"/>
<path d="M1481.72 152.442L1482.87 153.476L1520.95 110.823L1519.79 109.789L1481.72 152.442Z" fill="white"/>
<path d="M1484.93 192.107L1483.42 192.447L1477.35 165.889L1478.87 165.549L1484.93 192.107Z" fill="white"/>
<path d="M1431.6 39.813L1438.2 16.002H1436.59L1430.1 39.399L1431.6 39.813Z" fill="white"/>
<path d="M1418.21 31.655L1422.57 16.003H1420.96L1416.71 31.241L1418.21 31.655Z" fill="white"/>
<path d="M1273.98 137.828L1311.21 138.274L1311.23 136.72L1274 136.274L1273.98 137.828Z" fill="white"/>
<path d="M1398.83 182.207L1398.02 183.53L1323.36 138.142L1324.17 136.819L1398.83 182.207Z" fill="white"/>
<path d="M1273.99 149.463V151.017H1306.41V149.463H1273.99Z" fill="white"/>
<path d="M1318.98 150.878L1387.97 192.963L1388.78 191.64L1319.79 149.555L1318.98 150.878Z" fill="white"/>
<path d="M1704.81 32.11L1731.22 16.002H1728.24L1704 30.787L1704.81 32.11Z" fill="white"/>
<path d="M1691.42 40.268L1655.24 62.225L1654.43 60.902L1690.61 38.944L1691.42 40.268Z" fill="white"/>
<path d="M1643.53 69.339L1592.49 100.292L1591.69 98.969L1642.72 68.016L1643.53 69.339Z" fill="white"/>
<path d="M1580.79 107.401L1562.19 118.807H1560.93V117.253H1561.76L1579.97 106.077L1580.79 107.401Z" fill="white"/>
<path d="M1711.71 44.238L1758.26 16.002H1755.27L1710.9 42.915L1711.71 44.238Z" fill="white"/>
<path d="M1696.23 53.653L1662.14 74.359L1661.33 73.036L1695.42 52.33L1696.23 53.653Z" fill="white"/>
<path d="M1590.19 118.072L1569.07 130.832L1568.27 129.497L1589.39 116.737L1590.19 118.072Z" fill="white"/>
<path d="M1742.03 91.508L1689.75 123.293L1688.94 121.97L1741.22 90.185L1742.03 91.508Z" fill="white"/>
<path d="M1639.16 152.298L1639.97 153.621L1678.03 130.408L1677.23 129.084L1639.16 152.298Z" fill="white"/>
<path d="M1695.42 133.267L1696.23 134.591L1754.58 99.0363L1753.77 97.7127L1695.42 133.267Z" fill="white"/>
<path d="M1684.52 141.698L1644.16 166.38L1643.34 165.057L1683.71 140.375L1684.52 141.698Z" fill="white"/>
<path d="M1643.8 68.295L1642.45 69.059L1634.92 55.675L1636.27 54.91L1643.8 68.295Z" fill="white"/>
<path d="M1678.31 129.364L1676.95 130.129L1649.35 81.189L1650.7 80.424L1678.31 129.364Z" fill="white"/>
<path d="M1683.41 141.472L1712.34 192.637L1713.69 191.872L1684.76 140.707L1683.41 141.472Z" fill="white"/>
<path d="M1655.51 61.1811L1654.16 61.9451L1650.6 55.6751L1651.96 54.9101L1655.51 61.1811Z" fill="white"/>
<path d="M1661.05 74.1211L1688.69 123.002L1690.04 122.237L1662.4 73.3561L1661.05 74.1211Z" fill="white"/>
<path d="M1695.14 134.316L1722.76 183.245L1724.12 182.481L1696.49 133.551L1695.14 134.316Z" fill="white"/>
<path d="M1742.04 90.1851L1741.22 91.5081L1730.13 84.6081L1695.31 53.5741L1696.34 52.4081L1731.06 83.3611L1742.04 90.1851Z" fill="white"/>
<path d="M1798.83 137.237L1797.36 137.723L1792.43 122.729L1753.77 99.036L1754.58 97.713L1793.72 121.697L1798.83 137.237Z" fill="white"/>
<path d="M1801.73 150.497L1815.98 192.524L1817.45 192.026L1803.2 149.999L1801.73 150.497Z" fill="white"/>
<path d="M1831.66 192.01L1830.2 192.545L1814.72 150.507L1816.18 149.972L1831.66 192.01Z" fill="white"/>
<path d="M1809.91 137.747L1811.37 137.212L1800.82 108.247L1846.94 15.9991H1845.21L1799.13 108.153L1809.91 137.747Z" fill="white"/>
<path d="M1828.32 17.91L1825.81 24.81L1822.64 31.568L1818.62 38.13L1814.19 44.043L1808.91 49.755L1803.2 54.623L1797.09 59.06L1790.52 62.66L1783.57 65.83L1776.37 68.161L1768.97 69.649L1761.37 70.492L1753.97 70.498L1746.35 69.655L1738.97 68.186L1731.44 65.66L1710.74 44.116L1711.86 43.036L1732.43 64.44L1739.36 66.68L1746.59 68.119L1754.05 68.951L1761.29 68.944L1768.73 68.113L1775.98 66.656L1783 64.38L1789.83 61.272L1796.26 57.751L1802.24 53.404L1807.84 48.638L1813 43.047L1817.34 37.256L1821.28 30.834L1824.38 24.217L1826.86 17.376L1828.32 17.91Z" fill="white"/>
<path d="M1827.03 17.583L1828.56 17.292L1828.31 16.002H1826.73L1827.03 17.583Z" fill="white"/>
<path d="M1566.84 16V24.339H1568.4V16H1566.84Z" fill="white"/>
<path d="M1566.84 38.769V72.229H1568.4V38.769H1566.84Z" fill="white"/>
<path d="M1607.56 25.001L1622.24 16.001H1619.27L1606.74 23.678L1607.56 25.001Z" fill="white"/>
<path d="M1650.5 55.3051L1652.06 55.2811L1651.48 16.0051H1649.93L1650.5 55.3051Z" fill="white"/>
<path d="M1635.95 54.607L1635.23 55.979L1603.82 39.546H1567.62V37.992L1604.38 38.079L1635.95 54.607Z" fill="white"/>
<path d="M1567.62 23.562V25.116L1607.15 25.116V23.562L1567.62 23.562Z" fill="white"/>
<path d="M1567.89 130.165V192.277H1569.45V130.165H1567.89Z" fill="white"/>
<path d="M1580.96 106.223L1579.8 107.255L1560.35 85.504L1561.51 84.473L1580.96 106.223Z" fill="white"/>
<path d="M1628.47 159.818L1623.81 192.386L1622.28 192.168L1626.83 160.316L1589.21 117.92L1590.37 116.886L1628.47 159.818Z" fill="white"/>
<path d="M1650.43 81.468L1601.91 110.958L1601.1 109.635L1649.62 80.145L1650.43 81.468Z" fill="white"/>
<path d="M1592.67 99.115L1591.51 100.147L1567.04 72.747L1568.2 71.715L1592.67 99.115Z" fill="white"/>
<path d="M1600.95 110.784L1638.97 153.493L1640.13 152.461L1602.1 109.752L1600.95 110.784Z" fill="white"/>
<path d="M1644.51 165.889L1638.44 192.447L1636.93 192.108L1642.99 165.547L1644.51 165.889Z" fill="white"/>
<path d="M1690.27 39.813L1691.77 39.399L1685.27 15.9991H1683.66L1690.27 39.813Z" fill="white"/>
<path d="M1703.65 31.655L1705.15 31.241L1700.9 16.003H1699.29L1703.65 31.655Z" fill="white"/>
<path d="M1810.63 136.702L1810.65 138.256L1848.09 137.844L1848.07 136.29L1810.63 136.702Z" fill="white"/>
<path d="M1798.5 138.141L1723.83 183.529L1723.03 182.206L1797.69 136.817L1798.5 138.141Z" fill="white"/>
<path d="M1815.45 149.463V151.017H1848.08V149.463H1815.45Z" fill="white"/>
<path d="M1733.07 191.615L1733.88 192.939L1802.89 150.901L1802.08 149.578L1733.07 191.615Z" fill="white"/>
<path d="M1879.2 192.528L1893.44 234.561L1894.91 234.063L1880.67 192.031L1879.2 192.528Z" fill="white"/>
<path d="M1881.93 234.047L1880.47 234.581L1864.99 192.544L1866.45 192.009L1881.93 234.047Z" fill="white"/>
<path d="M1899.3 137.723L1904.23 122.729L1920 113.062V111.238L1903.17 121.551L1902.93 121.697L1897.82 137.237L1899.3 137.723Z" fill="white"/>
<path d="M1879.21 192.029L1880.68 192.526L1894.9 150.488L1893.43 149.991L1879.21 192.029Z" fill="white"/>
<path d="M1881.93 150.506L1866.45 192.544L1864.99 192.009L1880.47 149.972L1881.93 150.506Z" fill="white"/>
<path d="M1895.83 108.247L1885.28 137.212L1886.74 137.747L1897.41 108.469L1897.52 108.153L1851.64 16.0001H1849.91L1895.83 108.247Z" fill="white"/>
<path d="M1870.88 24.869L1874.05 31.649L1878.08 38.204L1882.71 44.093L1887.81 49.818L1893.51 54.668L1899.66 59.111L1906.18 62.693L1913.17 65.861L1920 68.069V66.436L1913.73 64.41L1906.88 61.302L1900.48 57.802L1894.46 53.45L1888.89 48.714L1883.9 43.099L1879.35 37.32L1875.42 30.92L1872.31 24.279L1869.8 17.379L1868.34 17.91L1870.88 24.869Z" fill="white"/>
<path d="M1869.63 17.583L1869.93 16.002H1868.34L1868.1 17.292L1869.63 17.583Z" fill="white"/>
<path d="M1848.77 137.828L1886 138.274L1886.02 136.72L1848.79 136.274L1848.77 137.828Z" fill="white"/>
<path d="M1920 151.421V149.607L1898.96 136.821L1898.15 138.142L1920 151.421Z" fill="white"/>
<path d="M1848.78 149.463V151.017H1881.2V149.463H1848.78Z" fill="white"/>
<path d="M1920 166.883V165.067L1894.57 149.577L1893.76 150.901L1920 166.883Z" fill="white"/>
</g>
</g>
</g>
<mask id="mask1_299_648" style="mask-type:luminance" maskUnits="userSpaceOnUse" x="0" y="0" width="960" height="206">
<path d="M960 0H0V206H960V0Z" fill="white"/>
</mask>
<g mask="url(#mask1_299_648)">
<g opacity="0.84">
<g opacity="0.12">
<path d="M940.822 192.277V254.389H942.376V192.277H940.822Z" fill="white"/>
<path d="M782.492 191.895L781.14 192.66L809.984 243.664L811.335 242.899L782.492 191.895Z" fill="white"/>
<path d="M770.684 201.863L798.284 250.803L799.638 250.038L772.038 201.098L770.684 201.863Z" fill="white"/>
<path d="M678.817 192.03L677.348 192.526L691.549 234.553L693.018 234.057L678.817 192.03Z" fill="white"/>
<path d="M663.134 192.544L678.61 234.582L680.067 234.047L664.591 192.011L663.134 192.544Z" fill="white"/>
<path d="M925.345 192.277V254.389H926.899V192.277H925.345Z" fill="white"/>
<path d="M866.326 224.736L866.566 225.003L904.426 267.454L905.585 266.422L867.965 224.239L872.514 192.387L870.979 192.168L866.326 224.736Z" fill="white"/>
<path d="M850.285 218.666L851.803 219.006L857.867 192.447L856.35 192.106L850.285 218.666Z" fill="white"/>
<path d="M696.294 246.201L697.101 247.524L771.765 202.142L770.958 200.819L696.294 246.201Z" fill="white"/>
<path d="M760.903 191.593L691.916 233.676L692.723 234.999L761.71 192.916L760.903 191.593Z" fill="white"/>
<path d="M933.862 117.253V118.807H934.915L935.1 118.692L953.715 107.401L952.908 106.078L934.478 117.253H933.862Z" fill="white"/>
<path d="M941.199 129.497L941.999 130.832L963.126 118.072L962.326 116.737L941.199 129.497Z" fill="white"/>
<path d="M939.778 16V24.339H941.333V16H939.778Z" fill="white"/>
<path d="M939.779 38.77V72.23H941.333V38.77H939.779Z" fill="white"/>
<path d="M990 46.4771L976.754 39.5471H940.554V37.9911H976.943L990 44.7831V46.4771Z" fill="white"/>
<path d="M940.555 23.562V25.116L980.082 25.116V23.562L940.555 23.562Z" fill="white"/>
<path d="M940.823 130.166V192.278H942.377V130.166H940.823Z" fill="white"/>
<path d="M933.283 85.505L952.732 107.255L953.892 106.224L934.442 84.473L933.283 85.505Z" fill="white"/>
<path d="M939.975 72.747L964.445 100.147L965.604 99.115L941.134 71.715L939.975 72.747Z" fill="white"/>
<path d="M789.987 32.11L763.573 16.002H766.549L790.795 30.787L789.987 32.11Z" fill="white"/>
<path d="M803.373 40.268L839.556 62.225L840.363 60.902L804.18 38.944L803.373 40.268Z" fill="white"/>
<path d="M851.265 69.339L902.296 100.292L903.103 98.969L852.072 68.016L851.265 69.339Z" fill="white"/>
<path d="M914.006 107.401L932.596 118.807H933.862V117.253H933.033L914.819 106.077L914.006 107.401Z" fill="white"/>
<path d="M783.085 44.238L736.532 16.002H739.521L783.892 42.915L783.085 44.238Z" fill="white"/>
<path d="M798.562 53.653L832.653 74.359L833.46 73.036L799.369 52.33L798.562 53.653Z" fill="white"/>
<path d="M904.6 118.073L925.722 130.833L926.522 129.498L905.4 116.738L904.6 118.073Z" fill="white"/>
<path d="M752.761 91.508L805.046 123.293L805.853 121.97L753.568 90.185L752.761 91.508Z" fill="white"/>
<path d="M817.565 129.085L816.758 130.408L854.822 153.621L855.629 152.298L817.565 129.085Z" fill="white"/>
<path d="M741.021 97.7124L740.214 99.036L798.563 134.591L799.369 133.267L741.021 97.7124Z" fill="white"/>
<path d="M810.272 141.699L850.637 166.381L851.451 165.058L811.085 140.376L810.272 141.699Z" fill="white"/>
<path d="M850.992 68.296L852.346 69.061L859.876 55.676L858.522 54.911L850.992 68.296Z" fill="white"/>
<path d="M844.099 80.4289L816.476 129.358L817.83 130.122L845.453 81.1934L844.099 80.4289Z" fill="white"/>
<path d="M810.027 140.67L781.115 191.881L782.468 192.645L811.38 141.434L810.027 140.67Z" fill="white"/>
<path d="M839.283 61.1811L840.637 61.9451L844.191 55.6751L842.837 54.9101L839.283 61.1811Z" fill="white"/>
<path d="M832.393 73.3551L804.75 122.236L806.103 123.001L833.746 74.1201L832.393 73.3551Z" fill="white"/>
<path d="M798.298 133.552L770.675 182.481L772.029 183.245L799.652 134.316L798.298 133.552Z" fill="white"/>
<path d="M752.755 90.186L753.574 91.509L764.655 84.609L799.482 53.575L798.449 52.409L763.734 83.362L752.755 90.186Z" fill="white"/>
<path d="M695.96 137.237L697.435 137.723L702.367 122.729L741.024 99.036L740.21 97.713L701.068 121.697L695.96 137.237Z" fill="white"/>
<path d="M691.577 149.993L677.343 192.027L678.812 192.524L693.046 150.49L691.577 149.993Z" fill="white"/>
<path d="M663.134 192.01L664.591 192.544L680.068 150.508L678.611 149.973L663.134 192.01Z" fill="white"/>
<path d="M684.881 137.747L683.418 137.213L693.971 108.247L647.847 16.0031H649.584L695.658 108.153L684.881 137.747Z" fill="white"/>
<path d="M666.476 17.91L668.987 24.81L672.152 31.568L676.167 38.131L680.599 44.044L685.876 49.756L691.589 54.624L697.702 59.061L704.268 62.661L711.223 65.83L718.417 68.161L725.826 69.649L733.421 70.492L740.826 70.498L748.438 69.655L755.826 68.186L763.347 65.66L784.047 44.116L782.924 43.036L762.361 64.44L755.435 66.68L748.202 68.119L740.742 68.951L733.506 68.944L726.063 68.113L718.809 66.656L711.786 64.38L704.965 61.272L698.533 57.751L692.551 53.405L686.951 48.639L681.788 43.048L677.447 37.257L673.514 30.835L670.414 24.218L667.931 17.377L666.476 17.91Z" fill="white"/>
<path d="M667.762 17.583L666.234 17.292L666.477 16.002H668.062L667.762 17.583Z" fill="white"/>
<path d="M926.394 16V24.339H927.948V16H926.394Z" fill="white"/>
<path d="M926.394 38.77V72.23H927.948V38.77H926.394Z" fill="white"/>
<path d="M887.235 25.001L872.551 16.001H875.523L888.051 23.678L887.235 25.001Z" fill="white"/>
<path d="M844.29 55.3051L842.736 55.2811L843.31 16.0051H844.863L844.29 55.3051Z" fill="white"/>
<path d="M858.839 54.607L859.561 55.979L890.97 39.546H927.17V37.992L890.418 38.079L858.839 54.607Z" fill="white"/>
<path d="M887.642 23.562V25.116L927.169 25.116V23.562L887.642 23.562Z" fill="white"/>
<path d="M925.345 130.165V192.277H926.899V130.165H925.345Z" fill="white"/>
<path d="M913.833 106.223L914.992 107.255L934.442 85.504L933.282 84.473L913.833 106.223Z" fill="white"/>
<path d="M866.326 159.819L870.979 192.387L872.514 192.168L867.965 160.317L905.58 117.917L904.426 116.887L866.326 159.819Z" fill="white"/>
<path d="M844.363 81.468L892.884 110.958L893.691 109.635L845.17 80.145L844.363 81.468Z" fill="white"/>
<path d="M902.12 99.115L903.279 100.147L927.749 72.747L926.59 71.715L902.12 99.115Z" fill="white"/>
<path d="M892.688 109.752L854.667 152.461L855.826 153.493L893.847 110.784L892.688 109.752Z" fill="white"/>
<path d="M850.285 165.889L856.35 192.447L857.867 192.107L851.803 165.547L850.285 165.889Z" fill="white"/>
<path d="M804.527 39.813L803.027 39.401L809.527 16.001H811.136L804.527 39.813Z" fill="white"/>
<path d="M791.141 31.655L789.641 31.241L793.888 16.003H795.503L791.141 31.655Z" fill="white"/>
<path d="M646.723 136.29L646.706 137.844L684.144 138.256L684.161 136.702L646.723 136.29Z" fill="white"/>
<path d="M696.294 138.142L770.956 183.53L771.764 182.207L697.101 136.818L696.294 138.142Z" fill="white"/>
<path d="M646.714 149.463V151.017H679.34V149.463H646.714Z" fill="white"/>
<path d="M692.708 149.578L691.902 150.902L760.914 192.923L761.72 191.6L692.708 149.578Z" fill="white"/>
<path d="M510.424 191.921L481.581 242.925L482.934 243.69L511.777 192.686L510.424 191.921Z" fill="white"/>
<path d="M520.924 201.092L493.279 250.033L494.633 250.798L522.279 201.857L520.924 201.092Z" fill="white"/>
<path d="M614.118 192.03L599.885 234.063L601.355 234.561L615.588 192.528L614.118 192.03Z" fill="white"/>
<path d="M612.865 234.048L614.322 234.583L629.799 192.545L628.342 192.01L612.865 234.048Z" fill="white"/>
<path d="M366.03 192.277V254.389H367.584V192.277H366.03Z" fill="white"/>
<path d="M387.353 266.421L388.512 267.453L426.604 224.735L421.953 192.167L420.418 192.386L424.965 224.238L387.353 266.421Z" fill="white"/>
<path d="M435.066 192.447L441.131 219.005L442.648 218.665L436.584 192.105L435.066 192.447Z" fill="white"/>
<path d="M521.169 202.142L595.831 247.524L596.639 246.201L521.976 200.818L521.169 202.142Z" fill="white"/>
<path d="M532.013 191.615L531.207 192.939L600.22 234.961L601.026 233.638L532.013 191.615Z" fill="white"/>
<path d="M207.702 191.894L206.348 192.66L235.21 243.688L236.564 242.923L207.702 191.894Z" fill="white"/>
<path d="M195.892 201.863L223.492 250.803L224.846 250.038L197.246 201.098L195.892 201.863Z" fill="white"/>
<path d="M104.025 192.029L102.556 192.526L116.779 234.564L118.249 234.067L104.025 192.029Z" fill="white"/>
<path d="M88.342 192.544L103.819 234.582L105.276 234.047L89.799 192.01L88.342 192.544Z" fill="white"/>
<path d="M350.554 192.277V254.389H352.108V192.277H350.554Z" fill="white"/>
<path d="M291.534 224.736L291.774 225.003L329.634 267.453L330.793 266.422L293.173 224.239L297.722 192.386L296.187 192.168L291.534 224.736Z" fill="white"/>
<path d="M275.493 218.665L277.011 219.005L283.075 192.447L281.558 192.107L275.493 218.665Z" fill="white"/>
<path d="M121.502 246.201L122.309 247.524L196.973 202.142L196.165 200.819L121.502 246.201Z" fill="white"/>
<path d="M186.11 191.591L117.124 233.676L117.931 234.999L186.918 192.915L186.11 191.591Z" fill="white"/>
<path d="M502.942 32.11L502.135 30.787L526.38 16.002H529.358L502.942 32.11Z" fill="white"/>
<path d="M452.57 60.902L453.377 62.225L489.557 40.268L488.749 38.945L452.57 60.902Z" fill="white"/>
<path d="M389.829 98.969L390.636 100.292L441.664 69.339L440.857 68.016L389.829 98.969Z" fill="white"/>
<path d="M359.07 117.253V118.807H360.123L360.308 118.692L378.923 107.401L378.116 106.078L359.686 117.253H359.07Z" fill="white"/>
<path d="M509.844 44.238L509.037 42.915L553.409 16.002H556.399L509.844 44.238Z" fill="white"/>
<path d="M459.472 73.037L460.279 74.36L494.372 53.654L493.565 52.331L459.472 73.037Z" fill="white"/>
<path d="M366.407 129.497L367.207 130.832L388.333 118.072L387.533 116.737L366.407 129.497Z" fill="white"/>
<path d="M487.077 121.97L487.884 123.293L540.169 91.508L539.362 90.185L487.077 121.97Z" fill="white"/>
<path d="M475.366 129.082L437.305 152.3L438.112 153.623L476.173 130.405L475.366 129.082Z" fill="white"/>
<path d="M551.904 97.6972L493.57 133.282L494.377 134.605L552.711 99.0205L551.904 97.6972Z" fill="white"/>
<path d="M441.482 165.058L442.295 166.381L482.661 141.699L481.847 140.376L441.482 165.058Z" fill="white"/>
<path d="M433.057 55.6751L440.584 69.0601L441.937 68.2951L434.411 54.9091L433.057 55.6751Z" fill="white"/>
<path d="M448.84 80.424L447.486 81.188L475.095 130.128L476.449 129.364L448.84 80.424Z" fill="white"/>
<path d="M482.932 140.656L481.577 141.419L510.439 192.66L511.794 191.897L482.932 140.656Z" fill="white"/>
<path d="M448.743 55.675L452.297 61.946L453.651 61.181L450.097 54.91L448.743 55.675Z" fill="white"/>
<path d="M460.553 73.316L459.199 74.0801L486.804 123.014L488.159 122.249L460.553 73.316Z" fill="white"/>
<path d="M494.641 133.546L493.287 134.31L520.896 183.25L522.25 182.486L494.641 133.546Z" fill="white"/>
<path d="M493.448 53.574L528.167 84.527L539.356 91.509L540.175 90.186L529.094 83.286L494.48 52.409L493.448 53.574Z" fill="white"/>
<path d="M551.909 99.036L590.565 122.729L595.497 137.722L596.973 137.237L591.865 121.696L591.622 121.55L552.722 97.713L551.909 99.036Z" fill="white"/>
<path d="M601.363 149.991L599.893 150.488L614.111 192.526L615.581 192.029L601.363 149.991Z" fill="white"/>
<path d="M612.865 150.507L628.341 192.545L629.798 192.01L614.322 149.974L612.865 150.507Z" fill="white"/>
<path d="M598.961 108.247L609.514 137.213L608.051 137.747L597.385 108.469L597.273 108.153L643.149 16.0001H644.884L598.961 108.247Z" fill="white"/>
<path d="M508.879 44.116L529.907 65.86L537.019 68.16L544.424 69.649L551.809 70.492L559.424 70.498L567.039 69.655L574.426 68.186L581.626 65.861L588.61 62.692L595.144 59.111L601.294 54.667L606.988 49.817L612.088 44.092L616.72 38.204L620.745 31.648L623.923 24.874L626.46 17.911L624.997 17.376L622.487 24.276L619.379 30.912L615.448 37.312L610.892 43.098L605.902 48.713L600.332 53.447L594.314 57.798L587.914 61.298L581.064 64.406L574.037 66.676L566.803 68.119L559.339 68.951L551.897 68.944L544.664 68.112L537.41 66.656L530.572 64.44L510.002 43.04L508.879 44.116Z" fill="white"/>
<path d="M625.168 17.583L624.868 16.002H626.453L626.695 17.292L625.168 17.583Z" fill="white"/>
<path d="M364.987 16V24.339H366.541V16H364.987Z" fill="white"/>
<path d="M364.987 38.769V72.229H366.541V38.769H364.987Z" fill="white"/>
<path d="M405.697 25.001L404.884 23.678L417.407 16.001H420.384L405.697 25.001Z" fill="white"/>
<path d="M448.642 55.3051L448.07 16.0051H449.623L450.197 55.2811L448.642 55.3051Z" fill="white"/>
<path d="M365.763 37.992V39.546H401.963L433.373 55.979L434.095 54.607L402.152 37.992H365.763Z" fill="white"/>
<path d="M365.764 23.562V25.116L405.291 25.116V23.562L365.764 23.562Z" fill="white"/>
<path d="M366.03 130.165V192.277H367.584V130.165H366.03Z" fill="white"/>
<path d="M358.491 85.505L377.94 107.255L379.1 106.224L359.65 84.473L358.491 85.505Z" fill="white"/>
<path d="M387.353 117.92L424.965 160.316L420.416 192.168L421.953 192.386L426.606 159.818L388.512 116.886L387.353 117.92Z" fill="white"/>
<path d="M399.238 109.635L400.045 110.958L448.566 81.468L447.759 80.145L399.238 109.635Z" fill="white"/>
<path d="M365.183 72.747L389.653 100.147L390.812 99.115L366.342 71.715L365.183 72.747Z" fill="white"/>
<path d="M400.221 109.779L399.063 110.813L437.142 153.466L438.3 152.433L400.221 109.779Z" fill="white"/>
<path d="M435.066 192.107L436.584 192.447L442.648 165.889L441.131 165.549L435.066 192.107Z" fill="white"/>
<path d="M488.403 39.813L481.794 16.002H483.407L489.902 39.399L488.403 39.813Z" fill="white"/>
<path d="M501.789 31.655L497.426 16.003H499.041L503.288 31.241L501.789 31.655Z" fill="white"/>
<path d="M646 136.274L608.774 136.72L608.793 138.274L646.019 137.828L646 136.274Z" fill="white"/>
<path d="M521.169 182.207L521.976 183.53L596.64 138.142L595.832 136.819L521.169 182.207Z" fill="white"/>
<path d="M613.594 149.463V151.017H646.01V149.463H613.594Z" fill="white"/>
<path d="M600.21 149.554L531.221 191.639L532.028 192.962L601.017 150.878L600.21 149.554Z" fill="white"/>
<path d="M215.195 32.11L188.781 16.002H191.757L216.003 30.787L215.195 32.11Z" fill="white"/>
<path d="M228.581 40.268L264.764 62.225L265.571 60.902L229.388 38.944L228.581 40.268Z" fill="white"/>
<path d="M276.474 69.339L327.505 100.292L328.312 98.969L277.281 68.016L276.474 69.339Z" fill="white"/>
<path d="M339.214 107.401L357.804 118.807H359.07V117.253H358.241L340.027 106.077L339.214 107.401Z" fill="white"/>
<path d="M208.293 44.238L161.74 16.002H164.729L209.1 42.915L208.293 44.238Z" fill="white"/>
<path d="M223.77 53.653L257.861 74.359L258.668 73.036L224.577 52.33L223.77 53.653Z" fill="white"/>
<path d="M329.808 118.072L350.93 130.832L351.73 129.497L330.608 116.737L329.808 118.072Z" fill="white"/>
<path d="M177.969 91.508L230.254 123.293L231.061 121.97L178.776 90.185L177.969 91.508Z" fill="white"/>
<path d="M242.773 129.085L241.966 130.408L280.03 153.621L280.837 152.298L242.773 129.085Z" fill="white"/>
<path d="M166.229 97.7124L165.422 99.036L223.771 134.591L224.577 133.267L166.229 97.7124Z" fill="white"/>
<path d="M235.48 141.698L275.845 166.38L276.659 165.057L236.293 140.375L235.48 141.698Z" fill="white"/>
<path d="M276.2 68.295L277.554 69.059L285.084 55.675L283.73 54.909L276.2 68.295Z" fill="white"/>
<path d="M241.693 129.364L243.047 130.129L270.647 81.189L269.293 80.424L241.693 129.364Z" fill="white"/>
<path d="M235.242 140.706L206.307 191.871L207.66 192.636L236.594 141.471L235.242 140.706Z" fill="white"/>
<path d="M264.491 61.1811L265.845 61.9451L269.399 55.6751L268.045 54.9101L264.491 61.1811Z" fill="white"/>
<path d="M257.601 73.3551L229.958 122.236L231.311 123.001L258.954 74.1201L257.601 73.3551Z" fill="white"/>
<path d="M223.506 133.551L195.883 182.48L197.237 183.245L224.86 134.315L223.506 133.551Z" fill="white"/>
<path d="M177.963 90.1851L178.782 91.5081L189.863 84.6081L224.69 53.5741L223.657 52.4081L188.942 83.3611L177.963 90.1851Z" fill="white"/>
<path d="M121.168 137.237L122.643 137.723L127.575 122.729L166.232 99.036L165.418 97.713L126.276 121.697L121.168 137.237Z" fill="white"/>
<path d="M116.797 149.999L102.551 192.026L104.02 192.524L118.265 150.497L116.797 149.999Z" fill="white"/>
<path d="M88.342 192.01L89.799 192.545L105.276 150.507L103.819 149.972L88.342 192.01Z" fill="white"/>
<path d="M110.089 137.747L108.627 137.212L119.179 108.247L73.056 16.0031H74.793L120.867 108.153L110.089 137.747Z" fill="white"/>
<path d="M91.684 17.91L94.194 24.81L97.36 31.568L101.375 38.131L105.807 44.044L111.084 49.756L116.797 54.624L122.91 59.061L129.476 62.661L136.433 65.83L143.625 68.161L151.034 69.649L158.629 70.492L166.034 70.498L173.646 69.655L181.034 68.186L188.555 65.66L209.255 44.116L208.132 43.036L187.569 64.44L180.643 66.68L173.41 68.119L165.95 68.951L158.714 68.944L151.271 68.113L144.017 66.656L136.994 64.38L130.173 61.272L123.741 57.751L117.759 53.405L112.159 48.639L106.996 43.048L102.655 37.257L98.722 30.835L95.622 24.218L93.139 17.377L91.684 17.91Z" fill="white"/>
<path d="M92.971 17.583L91.441 17.292L91.686 16.002H93.27L92.971 17.583Z" fill="white"/>
<path d="M351.6 16V24.339H353.155V16H351.6Z" fill="white"/>
<path d="M351.601 38.769V72.229H353.155V38.769H351.601Z" fill="white"/>
<path d="M312.443 25.001L297.759 16.001H300.732L313.259 23.678L312.443 25.001Z" fill="white"/>
<path d="M269.498 55.3051L267.944 55.2811L268.518 16.0051H270.071L269.498 55.3051Z" fill="white"/>
<path d="M284.046 54.607L284.768 55.979L316.177 39.546H352.377V37.992L315.625 38.079L284.046 54.607Z" fill="white"/>
<path d="M312.851 23.562V25.116L352.378 25.116V23.562L312.851 23.562Z" fill="white"/>
<path d="M350.554 130.165V192.277H352.108V130.165H350.554Z" fill="white"/>
<path d="M339.041 106.223L340.2 107.255L359.65 85.504L358.49 84.473L339.041 106.223Z" fill="white"/>
<path d="M291.534 159.818L296.187 192.386L297.722 192.168L293.173 160.316L330.789 117.916L329.634 116.886L291.534 159.818Z" fill="white"/>
<path d="M269.571 81.468L318.092 110.958L318.899 109.635L270.378 80.145L269.571 81.468Z" fill="white"/>
<path d="M327.328 99.115L328.487 100.147L352.957 72.747L351.798 71.715L327.328 99.115Z" fill="white"/>
<path d="M317.896 109.752L279.875 152.461L281.034 153.493L319.055 110.784L317.896 109.752Z" fill="white"/>
<path d="M275.493 165.889L281.558 192.447L283.075 192.108L277.011 165.547L275.493 165.889Z" fill="white"/>
<path d="M229.735 39.813L228.235 39.399L234.735 15.9991H236.344L229.735 39.813Z" fill="white"/>
<path d="M216.349 31.655L214.849 31.241L219.096 16.003H220.711L216.349 31.655Z" fill="white"/>
<path d="M71.9311 136.29L71.914 137.844L109.352 138.256L109.369 136.702L71.9311 136.29Z" fill="white"/>
<path d="M121.502 138.141L196.164 183.529L196.972 182.206L122.309 136.817L121.502 138.141Z" fill="white"/>
<path d="M71.923 149.463V151.017H104.549V149.463H71.923Z" fill="white"/>
<path d="M117.916 149.578L117.11 150.902L186.125 192.94L186.931 191.616L117.916 149.578Z" fill="white"/>
<path d="M39.326 192.03L25.093 234.063L26.563 234.561L40.796 192.528L39.326 192.03Z" fill="white"/>
<path d="M38.073 234.047L39.53 234.581L55.007 192.544L53.55 192.009L38.073 234.047Z" fill="white"/>
<path d="M20.702 137.723L15.77 122.729L0.0019989 113.062L0.0019989 111.238L16.831 121.551L17.073 121.697L22.181 137.237L20.702 137.723Z" fill="white"/>
<path d="M26.5712 149.991L25.101 150.488L39.3186 192.526L40.7888 192.029L26.5712 149.991Z" fill="white"/>
<path d="M38.073 150.506L53.549 192.544L55.006 192.009L39.53 149.972L38.073 150.506Z" fill="white"/>
<path d="M24.169 108.247L34.722 137.212L33.259 137.747L22.594 108.469L22.482 108.153L68.357 16.0001H70.092L24.169 108.247Z" fill="white"/>
<path d="M49.124 24.869L45.946 31.649L41.921 38.204L37.291 44.093L32.191 49.818L26.5 54.669L20.35 59.11L13.816 62.693L6.832 65.861L0 68.069L0 66.436L6.27 64.41L13.121 61.302L19.521 57.802L25.54 53.45L31.11 48.714L36.1 43.097L40.649 37.318L44.58 30.918L47.689 24.284L50.199 17.384L51.661 17.918L49.124 24.869Z" fill="white"/>
<path d="M50.377 17.583L50.077 16.002H51.662L51.904 17.292L50.377 17.583Z" fill="white"/>
<path d="M71.2083 136.274L33.982 136.72L34.0006 138.274L71.227 137.828L71.2083 136.274Z" fill="white"/>
<path d="M0 151.421L0 149.607L21.038 136.821L21.845 138.146L0 151.421Z" fill="white"/>
<path d="M38.802 149.463V151.017H71.218V149.463H38.802Z" fill="white"/>
<path d="M0 166.883L0 165.067L25.43 149.577L26.239 150.9L0 166.883Z" fill="white"/>
</g>
</g>
</g>
</svg>
